<svg xmlns="http://www.w3.org/2000/svg" viewBox="0 0 1790 868"><style type="text/css">
	.st0{fill:#FFFFFF;}
	.st1{fill:#BF311A;}
</style><title>  International-Logo-White</title><path class="st0" d="M387.2 713.7c0-10.3 0-12.2-0.1-14.4s-0.7-3.4-3-3.9c-0.9-0.2-1.8-0.2-2.6-0.2 -0.7 0-1.1-0.1-1.1-0.6s0.5-0.6 1.5-0.6c3.6 0 7.9 0.2 9.8 0.2s6.4-0.2 10.4-0.2c8.5 0 19.8 0 27.1 7.7 4.4 4.6 6.7 10.8 6.6 17.2 0.1 7-2.6 13.8-7.4 18.9 -3.1 3.2-10.2 8-22.7 8 -2.4 0-5.2-0.2-7.8-0.4 -2.6-0.2-4.9-0.4-6.6-0.4 -0.7 0-2.2 0-3.9 0s-3.3 0.1-4.7 0.1c-0.9 0-1.4-0.2-1.4-0.7 0-0.5 0.3-0.5 1.1-0.5 0.8 0 1.6-0.1 2.4-0.3 1.4-0.3 1.7-1.8 2-3.7 0.3-2.8 0.3-8.2 0.3-14.4L387.2 713.7zM395.7 721.1c0 7.2 0 12.4 0.1 13.7 0 1.7 0.2 4.5 0.7 5.1 0.9 1.3 3.5 2.7 8.9 2.7 6.9 0 11.5-1.4 15.6-4.9 4.3-3.7 5.7-9.9 5.7-16.8 0-8.6-3.6-14.1-6.5-16.9 -6.2-5.9-13.9-6.8-19.2-6.8 -1.5 0-3 0.1-4.5 0.5 -0.6 0.2-0.9 0.8-0.8 1.4 0 2.3 0 8.2 0 13.5L395.7 721.1z"/><path class="st0" d="M454 719.7c0-11.6 7.6-26.5 28-26.5 16.8 0 27.3 9.8 27.3 25.3s-10.8 27.8-28 27.8C461.9 746.2 454 731.6 454 719.7zM499.8 720.9c0-15.2-8.7-24.6-19.8-24.6 -7.8 0-16.7 4.3-16.7 21.2 0 14.1 7.8 25.3 20.8 25.3C488.9 742.8 499.8 740.5 499.8 720.9L499.8 720.9z"/><path class="st0" d="M542.8 697.9l-10.1 0.3c-3.9 0.1-5.5 0.5-6.6 2 -0.5 0.7-0.9 1.5-1.2 2.4 -0.1 0.6-0.3 0.8-0.7 0.8s-0.6-0.3-0.6-1.1c0-1.1 1.3-7.2 1.5-7.8 0.2-0.9 0.4-1.3 0.8-1.3 1 0.4 2 0.6 3 0.8 2 0.2 4.5 0.3 6.8 0.3h26.8c1.6 0 3.1-0.1 4.7-0.3 0.6-0.1 1.2-0.3 1.8-0.3 0.5 0 0.5 0.4 0.5 1.5 0 1.5-0.2 6.1-0.2 7.9 0 0.7-0.2 1.1-0.6 1.1 -0.4 0-0.7-0.3-0.7-1.4v-0.7c-0.1-1.8-2-3.7-8-3.8l-8.5-0.2v27.8c0 6.2 0 11.6 0.3 14.5 0.2 1.9 0.6 3.4 2.6 3.7 1.1 0.2 2.3 0.2 3.5 0.3 0.7 0 1.1 0.2 1.1 0.5 0 0.3-0.5 0.7-1.3 0.7 -4.5 0-8.7-0.2-10.6-0.2 -1.5 0-5.8 0.2-8.5 0.2 -0.9 0-1.4-0.2-1.4-0.7 0-0.5 0.3-0.5 1.1-0.5 0.8 0 1.6-0.1 2.4-0.3 1.4-0.3 1.8-1.8 2-3.7 0.3-2.8 0.3-8.2 0.3-14.4L542.8 697.9z"/><path class="st0" d="M654 745c-0.5 0-0.9-0.4-1-0.9 0-0.6 0.7-1.2 1.4-1.8 9.5-8.3 22.9-18.9 22.9-33.2 0-10.7-5.9-12.8-9.3-12.8 -2.6-0.2-5.2 0.7-7.2 2.4 -1.6 1.8-2.6 4.1-2.8 6.5 0 0.7-0.2 1.3-0.9 1.3 -0.3 0-0.6-0.5-0.6-1.3 -0.1-0.8-0.4-6.2-0.4-8.2 0-0.6 0-0.9 0.8-1.4 3.8-1.9 8-2.7 12.3-2.6 11.9 0 17 6.5 17 14.4 0 13.1-14.5 24.6-23.3 31.5 -0.3 0.3-0.2 0.5 0.1 0.5h4.6c1.2 0 9.1 0 11.6-0.4 4.7-0.6 6.9-2.8 7.7-6 0.2-0.8 0.4-1.1 0.8-1.1s0.5 0.6 0.5 1.3c-0.4 3.3-1.1 6.5-2 9.7 -0.6 1.8-1.6 2-5.9 2L654 745z"/><path class="st0" d="M752.6 738.8c-6.6-5.8-8.4-13.4-8.4-20 0-7 2.8-13.7 7.9-18.5 4.9-4.5 11.3-7.2 21.4-7.2 3.3 0 6.6 0.2 9.8 0.7 2.6 0.3 4.7 1 6.8 1.2 0.7 0 1 0.4 1 0.8 0 0.4-0.2 1.4-0.3 3.7s0 5.9-0.2 7.3c0 1-0.2 1.5-0.8 1.5s-0.7-0.5-0.7-1.5c-0.1-2.3-1-4.5-2.6-6.2 -2.2-2.4-7.5-4.2-13.7-4.2 -5.9 0-9.7 1.5-12.7 4.2 -4.9 4.5-6.2 11-6.2 17.5 0 16.1 12.3 24.1 21.3 24.1 5.9 0 9.7-0.7 12.4-3.8 1.1-1.3 1.9-2.8 2.3-4.5 0.2-1.1 0.3-1.4 0.9-1.4s0.6 0.5 0.6 1c-0.3 3-0.8 6-1.5 9 -0.1 0.9-0.8 1.7-1.8 2 -4 1.1-8.1 1.6-12.2 1.5C766.5 746.2 758.7 744.2 752.6 738.8z"/><path class="st0" d="M851.3 715.6c0.2 0 0.4-0.1 0.4-0.5v-1.5c0-10.3 0-12.2-0.1-14.4s-0.7-3.4-3-3.9c-0.9-0.2-1.8-0.2-2.6-0.2 -0.7 0-1.1-0.1-1.1-0.6s0.5-0.6 1.5-0.6c3.7 0 7.9 0.2 9.7 0.2 1.8 0 5.9-0.2 8.5-0.2 1 0 1.5 0.1 1.5 0.6s-0.4 0.6-1.2 0.6c-0.7 0-1.3 0.1-2 0.2 -1.8 0.3-2.4 1.5-2.5 3.9s-0.1 4.1-0.1 14.4v11.9c0 6.2 0 11.6 0.3 14.5 0.2 1.9 0.6 3.4 2.6 3.7 1.1 0.2 2.3 0.2 3.5 0.3 0.7 0 1.1 0.2 1.1 0.5s-0.6 0.7-1.4 0.7c-4.5 0-8.7-0.2-10.6-0.2 -1.5 0-5.8 0.2-8.5 0.2 -1 0-1.5-0.2-1.5-0.7s0.3-0.5 1.1-0.5c0.8 0 1.6-0.1 2.4-0.3 1.4-0.3 1.7-1.8 2-3.7 0.3-2.8 0.3-8.2 0.3-14.4v-5.9c0-0.2-0.2-0.4-0.4-0.4 0 0 0 0 0 0h-25.9c-0.2 0-0.4 0.1-0.4 0.3 0 0 0 0.1 0 0.1v5.9c0 6.2 0 11.6 0.3 14.5 0.2 1.9 0.6 3.4 2.6 3.7 1.1 0.2 2.3 0.2 3.5 0.3 0.7 0 1.1 0.2 1.1 0.5s-0.5 0.7-1.4 0.7c-4.5 0-8.7-0.2-10.6-0.2 -1.5 0-5.8 0.2-8.5 0.2 -0.9 0-1.4-0.2-1.4-0.7s0.3-0.5 1.1-0.5c0.8 0 1.6-0.1 2.4-0.3 1.4-0.3 1.7-1.8 2-3.7 0.3-2.8 0.3-8.2 0.3-14.4v-11.9c0-10.3 0-12.2-0.1-14.4 -0.1-2.2-0.7-3.4-3-3.9 -0.9-0.2-1.8-0.2-2.6-0.2 -0.7 0-1.1-0.1-1.1-0.6 0-0.5 0.5-0.6 1.5-0.6 3.7 0 7.9 0.2 9.7 0.2 1.8 0 5.9-0.2 8.5-0.2 1 0 1.5 0.1 1.5 0.6 0 0.5-0.4 0.6-1.2 0.6 -0.7 0-1.3 0.1-2 0.2 -1.8 0.3-2.4 1.5-2.5 3.9 -0.1 2.4-0.1 4.1-0.1 14.4v1.5c0 0.3 0.2 0.5 0.4 0.5L851.3 715.6z"/><path class="st0" d="M895.9 727.6c-0.3 0-0.5 0.1-0.6 0.5l-3.7 9.7c-0.6 1.3-0.9 2.7-1 4.1 0 1.2 0.6 2.1 2.7 2.1h1c0.8 0 1 0.1 1 0.5s-0.4 0.7-1.1 0.7c-2.2 0-5.1-0.2-7.2-0.2 -0.7 0-4.5 0.2-8 0.2 -0.9 0-1.3-0.1-1.3-0.7s0.3-0.5 0.8-0.5c0.7 0 1.4-0.1 2.1-0.1 3.1-0.4 4.5-2.7 5.8-6.1l17-42.5c0.8-2 1.2-2.7 1.9-2.7 0.7 0 1 0.6 1.7 2.2 1.6 3.7 12.4 31.3 16.8 41.6 2.6 6.1 4.5 7 5.9 7.4 0.9 0.2 1.9 0.3 2.8 0.3 0.5 0 0.9 0 0.9 0.5s-0.6 0.7-3.1 0.7 -7.4 0-12.8-0.1c-1.2 0-2 0-2-0.6s0.3-0.5 1-0.6c0.6-0.2 0.9-0.9 0.6-1.4 0 0 0 0 0-0.1l-5.4-14.4c-0.1-0.3-0.4-0.5-0.7-0.5L895.9 727.6zM909.7 724.2c0.3 0 0.4-0.2 0.3-0.4l-6.1-16.7c0-0.3-0.1-0.6-0.3-0.6 -0.2 0-0.3 0.3-0.4 0.6l-6.2 16.7c0 0.3 0 0.5 0.3 0.5L909.7 724.2z"/><path class="st0" d="M955.3 694.3c0.2-1.1 0.6-1.8 1.1-1.8 0.5 0 0.9 0.3 1.8 2.1l18.5 38.2 18.4-38.7c0.5-1.1 0.9-1.6 1.5-1.6s1 0.7 1.2 2.1l6.2 41.8c0.6 4.3 1.3 6.2 3.3 6.8 1.4 0.4 2.8 0.7 4.2 0.7 0.6 0 1.1 0 1.1 0.5s-0.8 0.7-1.8 0.7c-1.7 0-11-0.2-13.7-0.4 -1.5-0.1-2-0.3-2-0.7s0.3-0.6 0.7-0.7 0.6-1 0.3-3l-4.1-29.7h-0.3l-14.7 30.8c-1.6 3.2-1.9 3.8-2.5 3.8s-1.3-1.4-2.4-3.4c-1.6-3.1-7-13.5-7.8-15.4 -0.6-1.5-4.7-9.9-7-15h-0.3l-3.5 26.9c-0.1 1.1-0.2 2.1-0.2 3.2 0 1.3 0.9 1.9 2 2.2 0.9 0.2 1.9 0.3 2.8 0.3 0.5 0 1 0.1 1 0.5 0 0.6-0.6 0.7-1.6 0.7 -2.8 0-5.9-0.2-7.1-0.2s-4.5 0.2-6.7 0.2c-0.7 0-1.2-0.1-1.2-0.7 0-0.3 0.4-0.5 1.1-0.5 0.7 0 1.4-0.1 2-0.2 1.9-0.4 2.4-3 2.8-5.3L955.3 694.3z"/><path class="st0" d="M1034.2 713.7c0-10.3 0-12.2-0.1-14.4 -0.1-2.2-0.7-3.4-3-3.9 -0.9-0.2-1.8-0.2-2.6-0.2 -0.7 0-1.2-0.1-1.2-0.6s0.5-0.6 1.5-0.6c3.6 0 7.9 0.2 9.8 0.2 2.8 0 6.7-0.2 9.8-0.2 8.5 0 11.5 2.8 12.6 3.9 2.1 2.1 3.3 5 3.4 8 0 9.6-7 16.4-16.7 16.4 -0.5 0-1 0-1.5 0 -0.3 0-0.8-0.1-0.8-0.6 0-0.5 0.5-0.7 1.9-0.7 3.8 0 9.1-4.3 9.1-11.2 0.2-3.8-1.2-7.5-4-10.2 -1.8-1.7-4.3-2.6-6.8-2.6 -0.9 0-1.8 0.1-2.6 0.3 -0.3 0.1-0.5 0.6-0.5 1.3v27.1c0 6.2 0 11.6 0.3 14.5 0.2 1.9 0.6 3.4 2.6 3.7 1.1 0.2 2.3 0.2 3.5 0.3 0.7 0 1.1 0.2 1.1 0.5 0 0.3-0.5 0.7-1.3 0.7 -4.5 0-8.7-0.2-10.5-0.2s-5.8 0.2-8.5 0.2c-0.9 0-1.4-0.2-1.4-0.7 0-0.5 0.3-0.5 1.1-0.5 0.8 0 1.6-0.1 2.4-0.3 1.4-0.3 1.7-1.8 2-3.7 0.3-2.8 0.3-8.2 0.3-14.4L1034.2 713.7z"/><path class="st0" d="M1089.4 713.7c0-10.3 0-12.2-0.1-14.4 -0.1-2.2-0.8-3.5-2.3-3.8 -0.8-0.2-1.6-0.3-2.4-0.3 -0.7 0-1.1-0.1-1.1-0.7 0-0.5 0.6-0.5 1.6-0.5 2.6 0 6.8 0.2 8.8 0.2 1.7 0 5.7-0.2 8.3-0.2 0.9 0 1.5 0.1 1.5 0.5s-0.4 0.7-1.1 0.7c-0.7 0-1.4 0.1-2 0.2 -1.8 0.3-2.4 1.5-2.5 3.9 -0.1 2.4-0.1 4.1-0.1 14.4v11.9c0 6.6 0 11.9 0.3 14.9 0.2 1.8 0.7 3 2.7 3.3 1.1 0.2 2.3 0.2 3.5 0.3 0.7 0 1.1 0.2 1.1 0.5s-0.5 0.7-1.3 0.7c-4.5 0-8.7-0.2-10.6-0.2 -1.5 0-5.8 0.2-8.5 0.2 -0.9 0-1.4-0.2-1.4-0.7s0.3-0.5 1.1-0.5c0.8 0 1.6-0.1 2.4-0.3 1.4-0.3 1.8-1.5 2-3.4 0.3-2.8 0.3-8.2 0.3-14.8L1089.4 713.7z"/><path class="st0" d="M1122.7 719.7c0-11.6 7.6-26.5 28-26.5 16.8 0 27.3 9.8 27.3 25.3s-10.8 27.8-28 27.8C1130.6 746.2 1122.7 731.6 1122.7 719.7zM1168.5 720.9c0-15.2-8.7-24.6-19.8-24.6 -7.8 0-16.6 4.3-16.6 21.2 0 14.1 7.8 25.3 20.8 25.3C1157.6 742.8 1168.5 740.5 1168.5 720.9z"/><path class="st0" d="M1206.8 736c0.1 5.3 1 7 2.4 7.4 1.1 0.4 2.3 0.5 3.5 0.5 0.7 0 1.1 0.1 1.1 0.5s-0.6 0.7-1.5 0.7c-4.5 0-7.1-0.2-8.4-0.2 -0.6 0-3.8 0.2-7.3 0.2 -0.9 0-1.5 0-1.5-0.7s0.4-0.5 1.1-0.5c1 0 2-0.1 3-0.3 1.8-0.6 2-2.5 2.1-8.4l0.6-40.1c0-1.4 0.2-2.3 0.9-2.3 0.7 0 1.4 0.9 2.5 2.1 0.8 0.9 11.1 11.9 21 21.7 4.6 4.6 13.7 14.4 14.9 15.4h0.3l-0.7-30.4c0-4.1-0.7-5.4-2.3-6.1 -1.2-0.3-2.4-0.5-3.6-0.4 -0.8 0-1.1-0.2-1.1-0.6 0-0.4 0.7-0.6 1.8-0.6 3.5 0 6.8 0.2 8.2 0.2 0.7 0 3.3-0.2 6.6-0.2 0.9 0 1.5 0 1.5 0.6 0 0.6-0.4 0.6-1.2 0.6 -0.7 0-1.4 0-2 0.2 -1.9 0.6-2.4 2-2.5 5.8l-0.7 42.7c0 1.5-0.3 2.1-0.9 2.1s-1.5-0.7-2.3-1.5c-4.3-4.1-12.9-12.9-20-19.9 -7.4-7.3-14.9-15.8-16.1-17.1h-0.2L1206.8 736z"/><path class="st0" d="M1274.2 744.4c-1.1-0.5-1.3-0.8-1.3-2.3 0-3.7 0.3-7.8 0.3-8.9 0.1-1.1 0.3-1.8 0.8-1.8 0.6 0 0.7 0.6 0.7 1.1 0.1 1.2 0.3 2.3 0.6 3.5 1.5 5 5.5 6.8 9.7 6.8 6.1 0 9.1-4.1 9.1-7.7 0-3.3-1-6.4-6.6-10.8l-3.1-2.4c-7.4-5.8-10-10.6-10-16 0-7.4 6.2-12.8 15.6-12.8 3 0 6.1 0.3 9 1.1 0.6 0.1 1 0.3 1 0.8 0 0.9-0.3 2.8-0.3 8.1 0 1.5-0.2 2-0.7 2s-0.7-0.4-0.7-1.2c-0.1-1.6-0.7-3.2-1.8-4.5 -1.8-2.3-4.6-3.5-7.4-3.3 -5 0-8.1 3-8.1 7 0 3.1 1.5 5.5 7.2 9.7l1.9 1.5c8.2 6.2 11.1 10.8 11.1 17.3 0.1 4.8-2.3 9.2-6.4 11.8 -3.2 1.9-7 2.9-10.8 2.8C1280.7 746.3 1277.3 745.7 1274.2 744.4z"/><path class="st0" d="M1362.9 715.6c0.2 0 0.4-0.1 0.4-0.5v-1.5c0-10.3 0-12.2-0.1-14.4 -0.1-2.2-0.7-3.4-3-3.9 -0.9-0.2-1.8-0.2-2.6-0.2 -0.7 0-1.1-0.1-1.1-0.6s0.5-0.6 1.5-0.6c3.7 0 7.9 0.2 9.7 0.2s5.9-0.2 8.5-0.2c1 0 1.5 0.1 1.5 0.6s-0.4 0.6-1.2 0.6c-0.7 0-1.3 0.1-2 0.2 -1.8 0.3-2.4 1.5-2.5 3.9s-0.1 4.1-0.1 14.4v11.9c0 6.2 0 11.6 0.3 14.5 0.2 1.9 0.6 3.4 2.6 3.7 1.1 0.2 2.3 0.2 3.5 0.3 0.7 0 1.1 0.2 1.1 0.5s-0.5 0.7-1.4 0.7c-4.5 0-8.7-0.2-10.6-0.2 -1.5 0-5.8 0.2-8.5 0.2 -1 0-1.5-0.2-1.5-0.7s0.3-0.5 1.1-0.5c0.8 0 1.6-0.1 2.4-0.3 1.4-0.3 1.7-1.8 2-3.7 0.3-2.8 0.3-8.2 0.3-14.4v-5.9c0-0.2-0.1-0.4-0.4-0.4 0 0 0 0 0 0H1337c-0.2 0-0.4 0.1-0.4 0.3 0 0 0 0.1 0 0.1v5.9c0 6.2 0 11.6 0.3 14.5 0.2 1.9 0.6 3.4 2.6 3.7 1.1 0.2 2.3 0.2 3.5 0.3 0.7 0 1.1 0.2 1.1 0.5s-0.5 0.7-1.4 0.7c-4.5 0-8.7-0.2-10.6-0.2 -1.5 0-5.8 0.2-8.5 0.2 -0.9 0-1.4-0.2-1.4-0.7s0.3-0.5 1.1-0.5c0.8 0 1.6-0.1 2.4-0.3 1.4-0.3 1.7-1.8 2-3.7 0.3-2.8 0.3-8.2 0.3-14.4v-11.9c0-10.3 0-12.2-0.1-14.4 -0.1-2.2-0.7-3.4-3-3.9 -0.9-0.2-1.8-0.2-2.6-0.2 -0.7 0-1.1-0.1-1.1-0.6 0-0.5 0.5-0.6 1.5-0.6 3.7 0 7.9 0.2 9.7 0.2s5.9-0.2 8.5-0.2c1 0 1.5 0.1 1.5 0.6 0 0.5-0.4 0.6-1.2 0.6 -0.7 0-1.3 0.1-2 0.2 -1.8 0.3-2.4 1.5-2.5 3.9 -0.1 2.4-0.1 4.1-0.1 14.4v1.5c0 0.3 0.2 0.5 0.4 0.5L1362.9 715.6z"/><path class="st0" d="M1404.8 713.7c0-10.3 0-12.2-0.1-14.4 -0.1-2.2-0.8-3.5-2.3-3.8 -0.8-0.2-1.6-0.3-2.4-0.3 -0.7 0-1.1-0.1-1.1-0.7 0-0.5 0.5-0.5 1.6-0.5 2.6 0 6.8 0.2 8.8 0.2 1.7 0 5.7-0.2 8.3-0.2 0.9 0 1.5 0.1 1.5 0.5s-0.4 0.7-1.1 0.7c-0.7 0-1.4 0.1-2 0.2 -1.8 0.3-2.4 1.5-2.5 3.9 -0.1 2.4-0.1 4.1-0.1 14.4v11.9c0 6.6 0 11.9 0.3 14.9 0.2 1.8 0.7 3 2.7 3.3 1.1 0.2 2.3 0.2 3.5 0.3 0.7 0 1.1 0.2 1.1 0.5s-0.5 0.7-1.3 0.7c-4.5 0-8.7-0.2-10.6-0.2 -1.5 0-5.8 0.2-8.5 0.2 -0.9 0-1.4-0.2-1.4-0.7s0.3-0.5 1.1-0.5c0.8 0 1.6-0.1 2.4-0.3 1.4-0.3 1.8-1.5 2-3.4 0.3-2.8 0.3-8.2 0.3-14.8L1404.8 713.7z"/><path class="st0" d="M1446.2 713.7c0-10.3 0-12.2-0.1-14.4 -0.1-2.2-0.7-3.4-3-3.9 -0.9-0.2-1.8-0.2-2.6-0.2 -0.7 0-1.1-0.1-1.1-0.6s0.5-0.6 1.5-0.6c3.6 0 7.9 0.2 9.7 0.2 2.8 0 6.7-0.2 9.8-0.2 8.5 0 11.5 2.8 12.6 3.9 2.1 2.1 3.3 5 3.4 8 0 9.6-7 16.4-16.7 16.4 -0.5 0-1 0-1.5 0 -0.3 0-0.8-0.1-0.8-0.6 0-0.5 0.5-0.7 1.9-0.7 3.8 0 9.1-4.3 9.1-11.2 0.2-3.8-1.2-7.5-4-10.2 -1.8-1.7-4.3-2.6-6.8-2.6 -0.9 0-1.8 0.1-2.6 0.3 -0.3 0.1-0.6 0.6-0.6 1.3v27.1c0 6.2 0 11.6 0.3 14.5 0.2 1.9 0.6 3.4 2.6 3.7 1.1 0.2 2.3 0.2 3.5 0.3 0.7 0 1.1 0.2 1.1 0.5 0 0.3-0.5 0.7-1.3 0.7 -4.5 0-8.7-0.2-10.5-0.2s-5.8 0.2-8.5 0.2c-0.9 0-1.4-0.2-1.4-0.7 0-0.5 0.3-0.5 1.1-0.5 0.8 0 1.6-0.1 2.4-0.3 1.4-0.3 1.7-1.8 2-3.7 0.3-2.8 0.3-8.2 0.3-14.4L1446.2 713.7z"/><path class="st0" d="M1498 744.4c-1.1-0.5-1.3-0.8-1.3-2.3 0-3.7 0.3-7.8 0.3-8.9 0.1-1.1 0.3-1.8 0.8-1.8 0.6 0 0.7 0.6 0.7 1.1 0.1 1.2 0.3 2.3 0.6 3.5 1.5 5 5.5 6.8 9.7 6.8 6.1 0 9.1-4.1 9.1-7.7 0-3.3-1-6.4-6.6-10.8l-3.1-2.4c-7.4-5.8-10-10.6-10-16 0-7.4 6.2-12.8 15.6-12.8 3 0 6.1 0.3 9 1.1 0.6 0.1 1 0.3 1 0.8 0 0.9-0.3 2.8-0.3 8.1 0 1.5-0.2 2-0.7 2s-0.7-0.4-0.7-1.2c-0.1-1.6-0.7-3.2-1.8-4.5 -1.8-2.3-4.6-3.5-7.4-3.3 -5 0-8 3-8 7 0 3.1 1.5 5.5 7.2 9.7l1.9 1.5c8.2 6.2 11.1 10.8 11.1 17.3 0.1 4.8-2.3 9.2-6.4 11.8 -3.2 1.9-7 2.9-10.8 2.8C1504.5 746.3 1501.1 745.7 1498 744.4z"/><path class="st1" d="M886.1 384.6C887.3 388.9 887.3 380.4 886.1 384.6z"/><path class="st1" d="M859.1 385.7C860.3 390 860.3 381.4 859.1 385.7z"/><path class="st1" d="M825.6 385.7C826.3 387.3 826.9 385.6 825.6 385.7z"/><path class="st1" d="M940.1 392.2c-1.3 3.6 7.3 2.6 7.6 1.1C946.3 391.8 943.1 392.2 940.1 392.2z"/><path class="st1" d="M1103.4 205.2C1107.9 206.2 1103.6 201.9 1103.4 205.2z"/><path class="st1" d="M1113.1 85.2C1114.7 84.5 1113 83.8 1113.1 85.2z"/><path class="st1" d="M813.7 386.8C814.4 387.5 813.3 386.3 813.7 386.8z"/><path class="st1" d="M915.3 72.2C916.5 76.5 916.5 67.9 915.3 72.2z"/><path class="st1" d="M981.2 67.9c-0.3 1.5-1.8 1.8-2.2 3.2h3.2C982.2 69.8 982.5 68 981.2 67.9z"/><path class="st1" d="M994.2 70c-3.1-1.3-6.6-1.3-9.7 0 2.4 3.4 5.9 5.5 7.6 9.7C992.5 76.4 993.3 73.2 994.2 70z"/><path class="st1" d="M795.3 311.1C794.4 317.6 800.2 311.8 795.3 311.1z"/><path class="st1" d="M793.1 312.2C794.4 316.5 794.4 307.9 793.1 312.2z"/><path class="st1" d="M1103.4 253.8c0.4-6.4 3.2 0.5 5.4-2.2 0.4-5.8-1.9-8.6 2.2-14.1 -2.8-3.3-1-7.5 1.1-14.1 -6.2-2.8-3-5.9-3.2-13 -3-0.3-3.8-1.6-5.4-5.4 -5.1-4.3-2.5-11.3 3.2-13 -1.1-3.3-2.9-5.8-3.2-9.7 5.4 0.1 5.3-1.1 9.7 0 0.5-31.9 3.6-52.5-2.2-81.1 4.7-5.2 1.3-10.9 2.2-16.2 -1.1 0-0.8-1.3-1.1-2.2 -2.5-3-9.8-1-8.7-7.6 -3.6 2.6-7.8-2.1-9.7 2.2 0.2-1.5-0.7-2.8-2.2-3.2 -2.3 7-12.5 0.6-16.2-1.1 -1.4 3.4-10.2 4.8-8.6-4.3 -4.8-1.5 0 6.5-3.2 6.5 -17.1-0.1-43.9-6.1-62.7-2.2 4.6 2 1.7 7.3 0 10.8 -7.3 0.4-9.9-0.2-14.1 2.2 -0.7-6.2-3.1-10.6-8.7-11.9 0.2 3.4-6.5 1.2-7.6 1.1 0.5-2.4 5.3-0.4 7.6-1.1 -6.9-7.4-14.8 0.6-21.6-6.5 -6.3 5.9-17.6 2.2-22.7 0 -1.3 5-6.4 2.1-10.8 2.2 -1.9 0.7 0.1 5.1-2.2 5.4 0.2-2.7 0.2-5.2-2.2-5.4 0.5 7.8-4.1 7.4-8.7 7.6 0.3 2.5-0.3 4.1-2.2 4.3 -9.2-5.9-27.4 4.5-35.7-7.6 0.2 2.7-1.7 3.4-3.2 4.3 -0.8-2.5-7.4 1-6.5-3.2 -5.8 4.8-14.1-1.5-20.5 3.2 -1.9-5.2-5.1-2.8-7.6 0 0.3-2.5-0.3-4.1-2.2-4.3 0.2 1.5-0.7 2.9-2.2 3.2 -2-5.2-12.3 3.2-11.9-5.4 -5.2 5.7-17.1 8.2-22.7 2.2 -0.7 6.7-4.2 22.8 0 19.5 0.2 17.2-1.5 33.9-2 50.8l-0.9-1.3c-0.3 0.2-0.5 0.6-0.5 0.9v-1.5c-0.8-0.1-1.1 0.3-1.4 0.8 0.2 0.5 0.8 0.4 1.1 0.8h-1.1c0 4.2 0 7.1 0.3 9.7 0.7-0.8 1.2-0.3 1.6-1.1l0.4-1.1c-0.1 0-0.3 0-0.4 0v-0.8c0.3 0 0.6 0.1 0.6 0.3l-0.8-3.1 0 0 0.5 0.5c-0.1-0.4-0.3-0.8-0.6-1.1v-0.9c0.4 0.2 0.8 0.3 1.2 0.5 -0.2 7.8-0.1 15.6 0.5 23.3 -1-0.5-2.1-0.8-3.2-0.9 -0.6 3 2.3 3.8 1.4 5.9l2-3c0.8 9.2 2.4 18.2 4.8 27.1 -4.6 7.2-3.5 19.6 3.8 23.6v14c-2.1-1.3-3.9-2.8-5.9-4.2 -3 3 2.8 2.7 2.2 6.5 -2.1 0-1.4-3-4.3-2.2 -0.5 12.7-1.2 29.2 1.1 41.1 2.3 0.6 4.6 1.1 7 1.4 0 0-2.4 27-1.5 35.4 -1.9 2-3.2-1.3-5.4 1.1 -5.4 20.4 3.6 41.8-3.2 62.7 1.6 1.7 5.5 0.9 8.7 1.1 1.6 1.9-0.7 4.2 2.2 6.5 0.5-2.4 2.3-3.5 3.2-5.4 1.7 0.8 2.4 2.9 1.6 4.6 -0.1 0.3-0.3 0.5-0.5 0.8 3.9 1 0.9-4.9 4.3-4.3 -1.9 7.9 6.5-3.4 10.8 3.2 0.6-1.6-1.3-5.6 1.1-5.4 2.3 6.6 13.5-1 19.5 5.4 1.4-3.5-1.4-5.2 2.2-5.4 1.9 0.3-1.4 3.8 3.2 3.2 1.9-1.8-1.6-4.2 3.2-4.3 2.8 3.2-0.2 6.4 3.2 7.6 0-5.8 6.6-1.1 7.6-6.5 1.2 1 0.3 4 3.3 3.2 2.6-1.5 0.7-2.2 2.2-3.2 1.6 0.9 2.3 2.7 2.2 5.4 3.7-0.4 1.8-3.3 4.3 0 -0.2-1.5 0.7-2.9 2.2-3.2 2.1-0.6 2.5 5.9 4.3 2.2 -3.5-3.2 3.8-2 4.3 0 1.2-2 1.5-5 4.3-5.4 -0.3 3.6 2.4 4.1 3.2 6.5 0-3.3-0.6-7.1 3.2-6.5 0 3.2 2.3 5.9 5.4 6.5 2-0.1 0.7-3.6 3.2-3.2 1.6 5.7 13.9 2.5 16.2 1.1 1.3 5.5 6 7.7 7.6 13 2.5 0 3.2-1.9 6.5-1.1 3.3-1.9-3-3.3 0-4.3 7.4-1.7 13.5-1.6 17.3 3.2 4 1.1 1.7-4 5.4-3.2 -0.1 6.8 10.6 2.9 15.1 2.2 -0.9-0.9-3-0.7-3.2-2.2 10.2-2.3 23.3-1.1 31.3-2.2 0.7 4.7-5 3-8.7 3.2 1.9 4.3 14.9 2.2 14.1-3.2 0.3-3.4-3.1 2.8-3.2-1.1 0.9-1.6 3.5-1.5 5.4-2.2 0.9 3.1-1.5 2.8-1.1 5.4 5.6 1.3 3.1-3.8 4.3-4.3 1.3 0.2 0.9 2 1.1 3.2 5.5-1.3 13.3-3.8 18.4-2.2 -0.8-4 3.8-2.7 5.4-4.3 2.2 4.5 13.1 4.9 16.2 2.2 6.9 5.5 22.1 6.2 28.1 0 0.4 1.4 1.8 2.3 3.2 2.2 -0.4-6.4 5.8 0.6 6.5-4.3 -5.4 0.2-11.7-0.3-13-1.1 12.9-8.2 26.2 1.7 36.8 5.4 0-46.1-0.4-87 0-133C1110.2 255.7 1106.8 256 1103.4 253.8zM1108.8 89.5C1110.1 85.2 1110.1 93.7 1108.8 89.5zM792 146v-1.3C792 145.1 792 145.6 792 146L792 146zM800.7 81.9C802 77.6 802 86.1 800.7 81.9zM813.7 81.9h-2.2v-2.2h2.2L813.7 81.9zM820.2 78.6c1.9-0.1 2.3 1.3 4.3 1.1C824.8 81.7 818.4 81.7 820.2 78.6L820.2 78.6zM1068.8 78.6h2.2v2.2h-2.2L1068.8 78.6zM1055.8 78.6c-2.4 1-5.1 1-7.6 0C1048.7 75 1053.4 78.1 1055.8 78.6L1055.8 78.6zM1041.8 77.5c5.1-5.1-0.5 5.9-1.1 1.1C1040.5 77.4 1041.3 78.1 1041.8 77.5L1041.8 77.5zM1036.4 76.4h2.2v2.2h-2.2V76.4zM1022.4 76.4C1023.9 72.9 1025 80.7 1022.4 76.4zM1012.6 76.4c-0.5 1.6-1-0.1-2.2 0 0.2-0.6 0.8-0.9 1.3-0.8C1012.2 75.8 1012.5 76.1 1012.6 76.4L1012.6 76.4zM1017.8 131.3c12.4-3.2 14.7-5.4 25.3 1.5 8.1 5.3 10.6 6.9 10.6 11.3l-0.2-0.1c-0.2 0.6-0.7 1-1.2 1.3 0.4-0.1 0.9-0.1 1.3-0.1 -0.2 2.3-0.8 5.4-1.7 10 -1.8 10.5-3.7 21-5.5 31.5 -0.7-0.8-1.4-1-2.1-0.5 0.8 0.6 0.4 1.1 0 1.6 -1.2-1.8-2.3-3.8-4.3-3.7 0.8 0.7 1.5 1.4 1.5 2.1l-2.7-2.1c-0.4-1 0-2.1 0.8-2.8 -2.2-0.7-3.9-5.6-5.1-2.1 0.9 0.2 1.5 2 2.4 0.8 1.7 1.6 0.9 1.9 0.1 2.6l-7.6-5.9c-0.2-0.5-0.3-1.1-0.4-1.7 -0.7 0-1 0.3-1 0.6l-45.6-35.2L1017.8 131.3zM1049.3 257.7c-2.6-0.7-6.7-1.8-8.3-4 -0.4-0.6 0-1.1 0.2-1.5l1.5 1c0 0.6 0.5 1.1 1.1 1.1 0.2 0 0.3 0 0.5 0L1049.3 257.7zM1046.2 187.1l-0.4 2.4 -0.4-0.3c-0.6-0.8-0.6-1.2 0.8-2L1046.2 187.1zM968.3 75.3c-0.5 1.6-1-0.1-2.2 0 0.2-0.6 0.8-0.9 1.4-0.7 0.4 0.1 0.6 0.4 0.7 0.8L968.3 75.3zM964 75.3c-0.5 1.6-1-0.1-2.2 0 0.2-0.6 0.8-0.9 1.4-0.7 0.4 0.1 0.6 0.4 0.7 0.8L964 75.3zM954.3 74.2c0 1.1-1.3 0.8-2.2 1.1 -0.1-0.9 1.3-0.7 2.1-1L954.3 74.2zM951 74.2c-1 3.6-2 0.5-5.4 1.1 0.1-2.6 4-2.4 5.4-1L951 74.2zM948.9 79.6C950.1 75.3 950.1 83.9 948.9 79.6zM939.1 74.2C940.7 70.6 941.8 78.4 939.1 74.2zM929.4 73.1C933.4 76.4 926.1 76.8 929.4 73.1zM916.3 84.1C919 79.9 917.9 87.7 916.3 84.1zM898 84.1C899.2 79.8 899.2 88.4 898 84.1zM898 89.5C899.2 85.2 899.2 93.7 898 89.5zM882.8 83c-0.5 1.6-1-0.1-2.2 0 0-0.6 0.5-1.1 1.1-1.1C882.4 81.9 882.9 82.4 882.8 83L882.8 83zM866.6 80.8c0 1.1-1.3 0.8-2.2 1.1C864.5 80.9 865.8 81.1 866.6 80.8L866.6 80.8zM854.7 80.8h2.1V83h-2.2L854.7 80.8zM841.8 80.8h2.2V83h-2.2V80.8zM838.5 380.3C836.1 383.6 831.6 379.1 838.5 380.3zM872.8 342.2c-0.7 0.2-1.5 0.4-2.1 0.6 -1.4-1.2-2.5-2.3-3 0 0.3 0 0.5 0.2 0.7 0.3 -0.4 0-0.8 0-1.1 0l-0.4-0.3 -0.2 0.3c-1 0-2-0.1-3-0.3 -1-0.9-1.7-2.1-2-3.4 -1.9 0.3-0.6 1.7 0.3 3 -1.6-0.5-3.1-1.2-4.6-2.1 -0.2-0.1-0.3-0.2-0.4-0.4v0.1c-1.5-1-2.9-2-4.3-3.1 0-0.2-0.1-0.3-0.1-0.5l-0.2 0.2c-3-2.3-5.9-5-9.4-7.6 -14.4-10.4-13.9-8.6-7.2-24.8l16.4-39.2 64.9 63.1L872.8 342.2zM917.4 382.5C918.7 378.2 918.7 386.7 917.4 382.5zM962.8 390c3.4 1.2 2.9-0.3 5.4 1.1C968.5 392.9 961.2 393.3 962.8 390L962.8 390zM1055.6 338c-11.2 1.5-22.8-0.2-33.9-1.5 -7.3-0.9-14.8-12.6-19.5-17.5l-29-30.6c-0.6-1.2-0.4-1.8 1.5-1.8 -1.6-2.4-3-3.7-4-3.4 1.5 1.6 1.1 2.2 0.7 2.7 -2.5-4-5.1-8.3-8.2-9.8 1.6 2 3.1 3.9 3.2 5l-4.1-4.3c-1.6-2.6-2.3-4.6-0.8-5.8 -3.6-3-8.3-12.7-8.7-7.7 1.5 1 3.1 4.6 4 3.4 4 4.9 1.5 3.7 0.7 5l-7.2-7.6c-3.3-3.9-6.3-7.8-7.7-12.3 -3.2-1.5 0 3 1.7 5.9l-6.9-7.3c-0.6-0.8-1.5-1.8-2-2.7 0 0.2-0.1 0.3-0.1 0.5l-9.1-9.5c0 0 0 0 0.1 0 -2.4-3.1-2.3-2.8-2-1.9l-4-4.2c-0.1-0.6-0.3-1.1-0.6-1.6 -0.4 0.1-0.8 0-1.1-0.2l-5.9-6.2c-0.1-0.8-2.4-2.8-2.4-4 0.9-1.2 3.3 3.7 4.1 1.7 -1.8-2.3-4.6-3.8-7.5-3.9l-80.5-84.8c12.5-3.7 22.9-11.2 33.9-3.7l21.6 14.6c0 0 0 0 0 0.1 0.3 0.1 0.5 0.2 0.7 0.3l2.9 1.9c1.4 1.3 1.7 2.5-0.6 2.1 3 2.1 2.3 3.4 5.4 5.5 2-0.7-2.9-3.1-1.7-4.1 2.6 2.5 3.1 1.4 5.4 3.4 2.3 2.8-3.6 0.3 0.7 3.3l1.3-1.8c2 3 4 2.2 4.7 2.2 1.1 1.1 1.7 2.2 1 2.9 3.2 2.5 4.4 1.1 6.7 2l128.7 87.2 3 2c-0.6 0.8-0.6 2.6-1.9 1.6 0.4 1.7 4.8 1.9 3.8 4.1l8 1 25.3 17.2C1081.6 279.7 1062.2 337.1 1055.6 338L1055.6 338z"/><path class="st1" d="M825.6 385.7C825 384.1 824.3 385.8 825.6 385.7z"/><path class="st1" d="M795.3 383.5c0.8-0.2 2.1 0 2.2-1.1C796.6 382.7 795.3 382.5 795.3 383.5z"/><path class="st1" d="M1033.1 256.4l2.1 0.2C1034.4 256.3 1033.3 255.9 1033.1 256.4z"/><path class="st1" d="M1036.1 256.7l-0.9-0.1C1035.6 256.7 1036 256.8 1036.1 256.7z"/><path class="st1" d="M1035.8 255.8c0.4 0.6 0.4 0.8 0.3 0.9l5.8 0.6c-4-1.2-5.7-3-8.5-3.2C1033.4 254.8 1035 256.9 1035.8 255.8z"/><path class="st1" d="M1053.3 142.8c-1.2-0.7-2.5-1.2-3-0.1C1051.3 142.9 1053.1 144.7 1053.3 142.8z"/><path class="st1" d="M1051.2 146.1c-1-0.6 0.4-2.1-0.6-2.7 -1.4 0.6 0 1.2-1.5 1.8C1050.3 145.1 1050.2 147.5 1051.2 146.1z"/><path class="st1" d="M1048.5 147.9c-0.4 0-1-0.4-1.2 0C1047.7 148 1048.3 148.4 1048.5 147.9z"/><path class="st1" d="M860.5 333.6C862.5 335.9 862.1 332.7 860.5 333.6z"/><path class="st1" d="M860.5 333.6C859.7 333.3 860.2 334.1 860.5 333.6z"/><path class="st1" d="M855.8 330.5c-0.4-0.2-0.9-0.7-1.2-0.3C855 330.4 855.4 330.9 855.8 330.5z"/><path class="st1" d="M865.9 341.4C867.8 338.7 864.4 339 865.9 341.4z"/><path class="st1" d="M862 339c0.4-0.7 1.5-1.5 0.9-2.1 -0.5 0.4-1.1-0.1-1.7-0.6C860.3 337.3 861.3 338.1 862 339z"/><path class="st1" d="M864 339.2C864.9 339.4 864.4 338.6 864 339.2z"/><path class="st1" d="M857.9 335C857.4 337 860.4 334.2 857.9 335z"/><path class="st1" d="M864 339.2C863.2 338.9 863.7 339.7 864 339.2z"/><path class="st1" d="M856.3 334.4C856.3 334.9 856.3 334.1 856.3 334.4z"/><path class="st1" d="M862.6 340.1c-0.4 1.3 5.5 3.5 3.3 1.3C865 342.7 863.5 338.8 862.6 340.1z"/><path class="st1" d="M847.3 329.3C846.8 331.3 849.7 328.5 847.3 329.3z"/><path class="st1" d="M852.1 333.2C851.6 335.2 854.6 332.4 852.1 333.2z"/><path class="st1" d="M854.4 335C852.1 335.6 856.7 335.1 854.4 335z"/><path class="st1" d="M855.7 336C854.8 338.2 857.6 334.7 855.7 336z"/><path class="st1" d="M843.5 327.7c1 0.9 2.1 1.8 3 0.9C845.4 328.2 844.4 327.4 843.5 327.7z"/><path class="st1" d="M849.7 332.7C849.7 332.3 849.7 333.2 849.7 332.7z"/><path class="st1" d="M790.4 77c0.2 0.7-0.3 2.1 0.3 2.4 0.3-0.9 0.5 0.3 0.8 0.3 0-0.3 0-0.5 0.3-0.5l1.4-1.9C792.6 76.8 791.4 77.1 790.4 77z"/><path class="st1" d="M790.4 80c-0.3 5.1 0.5 11.1 0 14 0.2 0.5 0.7 0.8 0.8 1.4 1 0.1 0.7-1 1.6-0.8L792 82.5c0.1-0.1 0.3-0.2 0.3-0.3 -0.1 0-0.2 0-0.3 0l-0.2-3C792.1 80.2 791.2 80 790.4 80z"/><path class="st1" d="M790.4 100.2v3.5c1.1 0.3 0.6-0.9 1.6-0.5l1.9-4C792.3 98.3 792.3 101.2 790.4 100.2z"/><path class="st1" d="M790.4 112.9c1.1 0.1 0.4-1.5 1.4-1.6l0.3-1.4C791.1 108.9 790.2 111.2 790.4 112.9z"/><path class="st1" d="M791 114c0.9 0.2 0.8-0.4 1.4-0.5l0.3-1.1C792 112.8 791.1 113 791 114z"/><path class="st1" d="M791 115c0.4 0 0.8 0 0.8 0.3l1.4-0.8C792.4 113.5 791.9 114.7 791 115z"/><path class="st1" d="M790.4 131.2c0.7 0 1.6 0.1 1.6-0.5l0.8-0.8c-0.2 0.2-0.5 0.2-0.8 0.3l-0.1-6.5h0.7l-0.3-1.4c0.1 0.6-0.1 0.6-0.4 0.5l-0.1-7.4h-1.4C790.4 120.7 790.6 127.5 790.4 131.2z"/><path class="st1" d="M792.9 151.4l-0.2 0.5C792.9 151.9 792.9 151.8 792.9 151.4z"/><path class="st1" d="M790.4 155.2c0.6 3-0.6 4.4 0.8 5.9 -1.2 0.2-0.7 2.2-0.8 3.5 1 0.3 0.8-0.7 1.6-0.6l0.8-8.1C792.3 155.2 790.9 155.6 790.4 155.2z"/><path class="st1" d="M792.1 168.4l0.8-1.6c-0.2-0.3-0.6-0.4-0.9-0.2 0 0-0.1 0-0.1 0.1l-0.1-1.5c0 0.9-1.2 0.6-1.4 1.4 0.4 0.5 0 1.4 0 2.7C791.3 168.7 791.4 168.6 792.1 168.4z"/><path class="st1" d="M791.5 176c0.2 1-0.9 0.5-1.1 0.3v2.4c2.3 0.1 0.2 3.5 2.7 3.8v-4.6c-0.8-0.4-1.4 0.7-1.6 0C791.8 177.6 792.1 176.2 791.5 176z"/><path class="st1" d="M791 186.7c0.1 1 0.4 1.3 0.8 1.3l3-1.6C793.4 185.5 792.6 186.7 791 186.7z"/><path class="st1" d="M792.1 189.2l-0.3-1.1C790.9 188.6 791.6 188.7 792.1 189.2z"/><path class="st1" d="M790.4 195.9c1.1 0 2.4-0.7 3 0.3l-0.8-4.2v-2.3c-0.1 0-0.3 0-0.4 0.1l-0.1-0.6c-0.8-0.2-1 0.3-1.6 0.3C789.9 192 791.4 194.7 790.4 195.9z"/><path class="st1" d="M791.3 104.3c-0.8 0.7 0.8 2.3 1.1 1.1C791.4 105.3 791.7 105 791.3 104.3z"/><path class="st1" d="M792.1 108.3V107c-0.8-0.1-0.8 0.6-1.6 0.5 0.1 0.6 0.1 1.3 0 1.9C791.1 109.1 792.2 109.4 792.1 108.3z"/><path class="st1" d="M790.4 138c0.4 0.2 0.9 0.2 1.4 0 -0.5-1.2-0.1-1.7-1.4-2.2V138z"/><path class="st1" d="M792.1 138.2c-0.2 0-0.5 0-0.5 0.3C791.7 138.4 792.1 138.5 792.1 138.2z"/><path class="st1" d="M790.7 140.9c1-0.7 1.1 0.1 1.9 0.5l-0.6-2.2c-0.2 0-0.3-0.3-0.5-0.3 0 0.1-0.2 0.3-0.3 0h0.3v-0.3c-0.6 0.1-0.7-0.2-1.1-0.3v1.1c0.4 0 0.8 0 0.8 0.3C791.3 140.1 789.9 140.6 790.7 140.9z"/><path class="st1" d="M790.7 175.4c0-0.2 0-0.5 0.3-0.5 0 0.3 0.1 0.6 0.6 0.5 -0.3-0.6-0.1-1.7-1.1-1.6C790.6 174.3 790.1 175.4 790.7 175.4z"/><path class="st1" d="M790.4 180C790.6 180.2 790.3 179.9 790.4 180z"/><path class="st1" d="M790.4 186.5C790.8 187.4 791.1 185.5 790.4 186.5z"/><path class="st1" d="M791.5 196.2c-0.4 0.6-1.3 0.5-1.1 1.6C791.2 197.8 792 196.6 791.5 196.2z"/><path class="st1" d="M790.7 203.2c0.5-0.8 0.8-1.9 1.9-2.2 -0.2-1.1-0.5-2-1.9-1.9 -0.1 0.6 0.2 0.7 0.3 1.1 0.1 0 0.3 0.2 0 0.3v-0.3c-0.2 0-0.3 0.3-0.5 0.3C790.6 201.3 790.1 202.8 790.7 203.2z"/><path class="st1" d="M792.9 207l-0.5-2.4c-0.4 0.4-0.9 0.7-1.1 1.4C792 206 792.3 206.7 792.9 207z"/><path class="st1" d="M791.5 202.7c0.2 0 0.5 0 0.5-0.3C791.9 202.5 791.5 202.4 791.5 202.7z"/><path class="st1" d="M791 203.2c-0.4 0.5 0 0.3 0 1.1 0.2 0 0.3 0.3 0.6 0.3C791.6 203.9 791.6 203.2 791 203.2z"/><path class="st1" d="M790.7 205.6c0.4-0.6 0.6-0.5 0.3-1.4C790.2 203.9 790.3 205.7 790.7 205.6z"/><path class="st1" d="M790.7 213.2c0-0.3 0.8-0.4 0.8 0 0.3 1.3-0.8 1.3-0.8 2.4 0.2 0.4 1 0 1.1 0.5v-4C790.9 211.8 789.9 212.7 790.7 213.2z"/><path class="st1" d="M793.2 218l-1.4-1.9c0 0.5-0.9 0.2-0.8 0.8 0.6 0.1 0.1 1.3 0.3 1.9C792.5 219.2 792.3 218.2 793.2 218z"/><path class="st1" d="M792.3 227.5l-0.5-1.6c-0.7 0-0.6-0.8-1.4-0.8v1.4C791.6 226.2 791.5 227.3 792.3 227.5z"/><path class="st1" d="M791 227.2C791.4 227 791 226.9 791 227.2z"/><path class="st1" d="M791 227.2C790.6 227.4 791 227.5 791 227.2z"/><path class="st1" d="M790.7 231.3c0.2-0.8 0.7 0.4 1.3 0 -0.3-0.9-0.5-1.8-0.5-2.7 -0.5-0.1-0.7 0.4-0.8 0 0-0.2 0-0.3-0.3-0.3C790.6 229.2 790.1 230.8 790.7 231.3z"/><path class="st1" d="M792.3 232.6c-1.2 0.3-0.6-1.4-1.9-1.1v2.2c0.4 0.6 0.7-0.3 0.8 0.3 0 0.2-0.3 0.3-0.3 0.6C791.9 234.3 792.2 233.6 792.3 232.6z"/><path class="st1" d="M790.4 235.8c1.4-0.4 0.8 1.6 0.3 1.6h1.1c0.5-1.7-1.2-2.3-0.8-3C790.1 234.3 790.6 235.3 790.4 235.8z"/><path class="st1" d="M793.4 240.2l-1.1-1.4c-0.8-0.2-0.7 0.4-1.4 0.3 0 0.1-0.2 0.3-0.3 0h0.3c-0.1-0.2-0.2-0.5-0.5-0.5v2.2C791.4 240.4 793.4 241.3 793.4 240.2z"/><path class="st0" d="M1130 375.6h1.1c0.2 0 0.3 0 0.5-0.1 0.2 0 0.2 0.2 0.2 0.6s-0.1 1.7-0.1 1.8c-0.1 0.5-0.2 0.7-0.4 0.7s-0.3-0.2-0.3-0.9 -0.1-0.8-1.5-0.8h-1.7v6.4c0 1.1 0 2.1 0.1 3.2 0.1 0.5 0.3 1 0.8 1h0.4c0.4 0 0.5 0.2 0.5 0.3s-0.1 0.3-0.5 0.3c-0.4 0-1.9-0.1-2.4-0.1s-1.9 0.1-2.6 0.1c-0.4 0-0.5-0.2-0.5-0.3s0.2-0.3 0.5-0.3h0.5c0.7-0.1 0.7-0.6 0.8-1 0.1-0.4 0.1-1.5 0.1-3.2v-6.4h-2c-1.1 0-1.5 0.4-1.6 1 -0.1 0.6-0.2 0.5-0.4 0.5 -0.2 0-0.2-0.2-0.2-0.5 0-0.6 0.4-1.9 0.4-2.2 0-0.1 0.1-0.3 0.2-0.4 0.2 0 0.2 0.1 0.7 0.2 0.4 0.1 0.9 0.1 1.4 0.1L1130 375.6zM1134 376c0.1-0.3 0.1-0.7 0.4-0.7s0.4 0.2 0.6 0.5l4.6 8.8 4.5-8.9c0-0.2 0.2-0.4 0.5-0.4 0.2 0 0.3 0.3 0.4 0.6l1.5 10c0.2 1.3 0.5 1.5 1 1.5h0.4c0.3 0 0.3 0.1 0.3 0.3 0 0.2-0.1 0.3-0.4 0.3s-2.8-0.1-3.2-0.2c-0.2 0-0.4-0.1-0.4-0.3 0 0 0 0 0-0.1l-1-7h-0.1l-3.5 6.6c-0.3 0.6-0.4 0.9-0.7 0.9s-0.5-0.5-0.7-0.9l-3.5-6.8h-0.1l-0.7 6.1v0.7c0 0.2 0.1 0.5 0.4 0.5h0.4c0.3 0 0.4 0.1 0.4 0.3s0 0.3-0.3 0.3c-0.6 0-1.5-0.1-1.9-0.1 -0.4 0-1 0.1-1.5 0.1 -0.3 0-0.4-0.2-0.4-0.3s0.2-0.3 0.5-0.3h0.3c0.3 0 0.5-0.3 0.6-1.2L1134 376z"/><polygon class="st1" points="788.7 804.5 772 816.6 778.4 836.5 761.7 824.2 745 836.5 751.3 816.6 734.6 804.5 755.2 804.5 761.6 784.9 768.1 804.5 "/><polygon class="st1" points="884.3 804.5 867.5 816.6 873.8 836.5 857.2 824.2 840.5 836.5 846.8 816.6 830.1 804.5 850.7 804.5 857.1 784.9 863.6 804.5 "/><polygon class="st1" points="979.8 804.5 963 816.6 969.4 836.5 952.7 824.2 936 836.5 942.3 816.6 925.6 804.5 946.3 804.5 952.6 784.9 959.1 804.5 "/><polygon class="st1" points="1075.3 804.5 1058.5 816.6 1064.9 836.5 1048.2 824.2 1031.5 836.5 1037.9 816.6 1021.1 804.5 1041.8 804.5 1048.1 784.9 1054.6 804.5 "/><polygon class="st1" points="1170.8 804.5 1154 816.6 1160.4 836.5 1143.7 824.2 1127 836.5 1133.4 816.6 1116.6 804.5 1137.3 804.5 1143.6 784.9 1150.1 804.5 "/><path class="st0" d="M528.8 346.8c0 2.2-5.4 5.7-16.1 10.4 -11.9 5.2-24.2 9.5-36.7 12.8 -32.3 23.1-64.3 64.3-96 123.5l-3.1 5.8c1.8 0.3 3.6 0.4 5.5 0.4 15.8 0 31.2-5.1 43.8-14.6 13.4-9.7 21.5-21.5 24.3-35.2 0.5-2.1 1.2-3.1 2.1-3.1s1.2 0.5 1.2 1.5c0 7.9-4.3 17-12.8 27.1 -15.3 18.4-35.1 27.6-59.4 27.6 -2.3 0-4.6-0.1-6.8-0.4l-5.5 10.7c-9.5 18.2-17.8 31.7-25.1 40.5 -8.1 9.5-17.4 17.9-27.6 24.9 -32.6 23.2-65.9 34.8-100.1 34.8 -19.1 0-34.8-4-47.2-12.1 -12.4-8.1-18.6-18.4-18.6-31.1 -0.2-6.2 1.9-12.3 5.7-17.2 3.2-4.4 8.4-7.1 13.9-7.1 8.4 0 12.7 4.4 12.7 13.2 0.1 4-1.4 8-4.2 10.9 -2.6 2.9-6.3 4.5-10.2 4.5 -6.1 0-9.1-2.9-9.1-8.8V562c0-1.2-0.4-1.8-1.2-1.9 -2.3 0-3.5 3.3-3.5 9.9 0 11.2 5.5 20.5 16.4 28.1 10.9 7.6 24.5 11.4 40.7 11.4 39.1 0 74.2-19.5 105.5-58.6 9.2-11.6 21.6-29.4 37.2-53.5 -22.1-9.5-33.1-25-33.1-46.4 0-25.9 14.6-45.2 43.8-57.8 14.8-6.5 38.1-12.4 69.9-17.7l21.4-3.5 18.3-3.9c8.6-6.1 17.7-11.3 27.3-15.5 11.2-5.1 19-7.7 23.3-7.7C527.7 344.8 528.8 345.5 528.8 346.8zM470.2 371.6c-3 0.6-7.4 1.7-13.2 3.1 -4.8 1.3-11.8 3.1-21 5.3 -31.7 7.5-56.9 18.6-75.6 33.2 -18.7 14.6-28.1 30.4-28.1 47.4 0 16.3 8 27.9 23.9 34.6C390.5 440.3 428.5 399.1 470.2 371.6z"/><path class="st0" d="M1245.5 453.6c-4.6 0-9.1 2.1-13.3 6.2 -4.2 4.1-6.3 8.5-6.3 13 0 6.3 3.3 9.6 9.6 9.6 5.1-0.1 9.8-2.4 13.2-6.2 3.7-3.5 5.8-8.3 5.9-13.4C1254.8 456.8 1251.6 453.6 1245.5 453.6z"/><path class="st0" d="M272.4 374.7c-4.6 1.6-9.5 2.4-14.4 2.3 -10-0.1-20-1.2-29.7-3.3l-11.9-2.2c13.1-5.6 27.2-8.5 41.5-8.6 5-0.1 10 0.6 14.8 2.1 1.8 0.5 3.4 1.4 4.7 2.7 0.5 0.5 0.8 1.2 0.8 1.9C278.1 371.5 276.2 373.2 272.4 374.7zM257.4 359.8c-14.9 0-30.7 3.6-46.8 10.6 -19.2-4-31.5-6.5-36.5-7.1 -19.6-2.6-35.1-2.9-48.8-0.8 -20.5 3.2-40.6 8.6-54.5 31 -3.5 5.6-9.2 21.6-2.6 35.9 7.4 15.8 19 16.4 24.3 16.5 5.9 0.2 19.8-0.1 28.6-12.8 7.9-11.3 2.2-21.5-3.3-24.4 -5.5-2.9-12.9-0.6-15.2 0.4l-0.3 0.1 -0.2 0.1 0 0H102l0 0c0.5-0.1 9.4-0.2 12.3 3.8s3.2 14.9-2.6 21c-4.8 5.5-11.9 8.6-19.2 8.3 -8-0.1-18.1-7.1-21.3-15 -4.9-12.3-2.7-26.4 5.7-36.6 18.5-22.9 53.1-21.2 62.8-21.3 9.4-0.1 23.1 1.9 40.8 5.8 6.4 1.4 11.5 2.5 15.1 3.1 -19.1 9.7-37.7 29.1-55.2 57.8 -11 18.1-20.1 31.2-27.1 39.2 -14.7 16.8-31.6 25.3-50.1 25.3 -1.2 0-2.5 0-3.6-0.1l0 0c-6.3-0.3-12.3-2.3-17.6-5.7 -5.6-3.8-8.5-8.5-8.5-13.9 0-3.3 0.6-4.5 1.1-4.6 0 0 0.3 0.3 0.3 1.9 0 3.6 1.9 5.5 5.6 5.5 2.2 0 4.3-1 5.6-2.6 1.5-1.7 2.3-3.9 2.3-6.2 0-5.1-2.6-7.8-7.4-7.8 -3.1 0-5.9 1.5-7.7 3.9 -2.1 2.6-3.3 5.9-3.2 9.2 0 7 3.3 12.8 9.9 17.2s15 6.5 25.1 6.5c19 0 37.6-6.6 55.2-19.7 6.1-4.4 11.4-9.7 15.9-15.8 3.8-5.4 9.9-16.3 18.1-32.3 8.2-16.1 15.9-28.6 23-37.3 6.3-8.1 14.3-14.8 23.3-19.7 13.5 2.7 27.2 4.2 40.9 4.5 9.5 0.2 18.9-1.1 28-4 7.9-2.8 11.8-6.1 11.8-10.2C281.1 362.9 273.3 359.7 257.4 359.8L257.4 359.8z"/><path class="st0" d="M280.4 464.4h-0.1c-0.8 0-1.6 0.6-2.6 1.9 -15.9 21.4-29.4 32.2-40.3 32.2 -6.2 0-9.2-2.8-9.2-8.4 0-4.6 2.3-10.5 6.9-17.5l0 0c15.3-3.1 26.4-6.4 32.9-9.9 6.6-3.5 10.2-8.2 10.2-13.4 0-2.3-1.1-4.5-3-5.9 -0.5-0.4-1.1-0.8-1.7-1.1 0 0 0 0-0.1 0 -0.1-0.1-0.2-0.1-0.3-0.1l0 0c-1.5-0.7-3.1-1.1-4.8-1.1 -5.9 0-13.6 2.6-22.9 7.7 -11.8 6.4-19.7 13.6-23.7 21.5l-1.8 2.5c-10.8 15.1-19 23.8-24.4 25.8l-0.3 0.1h-0.2c-0.5 0.2-1.1 0.3-1.7 0.3l0 0c-1.9 0.3-3.6-1-3.9-2.8 -0.1-0.4-0.1-0.7 0-1.1 0-1.7 1.8-6.3 10.2-18.8 6.3-9.3 9.4-16.4 9.4-21.3 0.1-3.6-1.1-7.1-3.4-9.9 -0.9-1.2-2.1-2.1-3.3-2.9 -1.5-0.8-3.2-1.3-4.9-1.3 -0.4 0-0.9 0-1.3 0.1l0 0c-5.9 0.8-13.1 6.5-21.7 17.5l8.7-14.6c14.4-23.2 25.3-40.9 32.6-52.6l0.9-1.4 -1.6 0.4c-2.5 0.7-5.1 1-7.7 1h-0.1c-1.8 0-3.5-0.2-5.2-0.6l-0.4-0.1 -16.2 27.5c-11.9 20.3-19.1 32.4-21.4 36.2 -4.3 7.7-7.6 13.7-9.7 17.7l-16.1 29.1 1.3-0.2c1.6-0.3 3-0.4 4.2-0.6 0.7 0 1.3-0.1 1.9-0.1 1.8 0 3.5 0.3 5.2 0.6l0.4 0.1 0.2-0.4c12.2-22 21.9-37.1 28.9-44.9 7.1-8.1 12.8-12.2 16.8-12.2 2.5 0 3.7 1.1 3.7 3.5 -0.2 1.3-0.7 2.6-1.3 3.7l0 0c-3.3 6.1-7 12.1-11 17.8 -5.4 8-8.1 14.6-8.1 19.6 -0.1 3.5 1.1 6.9 3.4 9.5 2.2 2.5 5.4 3.9 8.8 3.8 6.2 0 15-7.7 26.8-23.5 -0.2 1.4-0.3 2.8-0.3 4.2 -0.2 5.1 1.7 10 5.2 13.8 3.3 3.6 8 5.6 12.8 5.5 10.5 0 23.3-9.1 37.9-27.1l4.5-5.7c2-2.6 2-2.9 2-3.1C281.3 465.1 281 464.6 280.4 464.4zM253.9 451.1c5.9-5 10.7-7.6 14.3-7.6 2.1 0 3 0.8 3 2.7 0 4-3.5 8.3-10.2 12.9 -7.3 4.7-15.4 8.2-23.8 10.4C241.9 462.7 247.5 456.5 253.9 451.1L253.9 451.1z"/><path class="st0" d="M1768.8 405.8l1.3-2.1 -2.3 0.9c-4.3 1.6-8.8 2.3-13.4 2.3 -3.4-0.1-6.8-0.6-10.1-1.5l-0.6-0.2 -0.3 0.6c-16 28.6-36 62.7-59.4 101.6 -2.9 4.8-5.6 9.2-8.1 13.4l0 0 0 0 -16.3 25.5c-9.8 14.5-20.8 28.3-32.9 41 -11.2 11.6-19.3 17.6-24.3 17.6 -4.6 0-6.8-2.6-6.8-8.3 0-6.2 5.9-19.3 17.8-39.1l35.4-58.5 -1.8 0.3c-4.5 0.8-9 1.3-13.5 1.4 -3.4-0.1-6.8-0.5-10.1-1.3l-0.7-0.1 -7.3 13.8c0.1-0.9 0.2-1.8 0.2-2.7 0-8.3-4.3-12.5-12.9-12.5 -9.6 0-22.3 4.4-37.8 13 -24.2 13.2-40.2 27.9-47.8 43.9 -24 33.5-41.2 50.4-51.4 50.4 -4.9 0-7.1-2.3-7.1-7.1s6.1-16.5 18.2-34.6 18.1-31.6 18.1-40.3c0.2-6.5-2-12.8-6-17.8 -3.6-4.6-9.2-7.3-15.1-7.3 -7.2 0-15.1 4-23.5 11.9 -6.4 6.1-15 16.2-25.7 30.4 4.3-8.4 6.4-15.4 6.4-21 0.1-5.4-1.6-10.6-4.9-14.9 -2.7-3.9-7.2-6.3-12-6.4 -7.2 0-20.6 13.2-40.9 40.3l-1.6 2.1 -1.3 1.7c-1 1.4-2.4 3.1-3 3.9l-3.3 4 -0.7 0.8c-4.2 5.1-9.1 9.6-14.5 13.4 -7.6 5.3-14.4 8-20 8 -2.6 0-5.1-0.6-7.4-1.8 15.3-20.7 23.1-38.8 23.1-53.6 0-12.5-5.9-18.8-17.6-18.8 -12.1 0-27.6 6.7-46.1 19.8 -9.3 6.4-17.8 14-25.1 22.6l-1.1 1.3 -2.3 3c-28.5 40.2-48.6 60.6-59.7 60.6 -5.7 0-8.3-2.5-8.3-7.9s3.2-13.6 9.4-23.9l45-74.4 -1.8 0.3c-4.9 0.8-9.8 1.2-14.7 1.4 -3.2-0.1-6.3-0.6-9.4-1.3l-0.6-0.1 -25.3 43c-0.4 0.4-0.8 0.9-1.2 1.4 -27.8 40.8-47.7 61.4-59.1 61.4 -5.7 0-8.3-2.5-8.3-7.9 0-5.1 2.6-12.2 7.9-21l43.1-73.7h25.5l2.5-4.6h-25.4l22.7-38.3 -2 0.6c-3.6 1-7.3 1.5-11.1 1.5 -3.7 0-7.3-0.5-10.9-1.5l-0.6-0.2 -22.9 37.9h-19.4l-3.1 4.6h20l-23.7 39.8 0 0c-0.4 0.4-0.8 0.9-1.1 1.5 -10.4 15.6-22 30.2-34.8 43.9 -11.2 11.6-19.3 17.6-24.3 17.6 -4.6 0-6.7-2.6-6.7-8.3 0-6.2 5.9-19.3 17.8-39.1l35.3-58.7 -1.8 0.3c-4.5 0.8-9 1.3-13.5 1.4 -3.4-0.1-6.8-0.5-10.1-1.3l-0.6-0.1 -7.3 13.8c0.1-0.9 0.2-1.8 0.2-2.7 0-8.3-4.4-12.5-12.9-12.5 -9.6 0-22.3 4.4-37.8 13 -24.1 13.2-40.2 27.9-47.8 43.9 -24 33.5-41.2 50.4-51.4 50.4 -4.9 0-7.1-2.3-7.1-7.1s6.1-16.5 18.2-34.6c12-18.1 18.1-31.6 18.1-40.4 0.2-6.5-2-12.8-6-17.8 -3.6-4.6-9.2-7.3-15.1-7.3 -7.2 0-15.1 4-23.5 11.9 -6.4 6-15 16.2-25.7 30.4 4.3-8.4 6.4-15.4 6.4-21 0.1-5.4-1.6-10.6-4.9-14.9 -2.7-3.9-7.1-6.3-11.9-6.4 -7.2 0-20.6 13.2-40.9 40.3l-0.9 1.2 0 0 -0.7 0.9 -1.2 1.7c0 0-4.7 5.8-6.4 7.6 -0.8 0.8-2.5 2.8-4.1 4.6l0 0c-0.9 1-1.7 2-2.6 3l-0.4 0.4c-8.2 8.8-16 13.3-23.2 13.3 -7.7 0-11.4-5.1-11.4-15.5 0.2-4.9 1.1-9.7 2.6-14.3l2-1.7c5.7-3.5 10-6.2 12.9-8 18.5-11.9 27.5-20.8 27.5-27.4 0-2.8-1.2-6.1-6.9-6.1 -6.1 0-12.9 4-20.4 11.9 -7.8 8.5-14.1 18.4-18.5 29 -4.6 3.8-9 7.9-13 12.2 7.4-13 11.3-23.8 11.3-32.3 0-13.9-5.5-20.9-16.4-20.9 -7.5 0-21.1 13.2-41.4 40.3l-3.5 4.7 0 0c-0.7 0.7-1.3 1.4-1.9 2.2 -29.5 39.6-54.6 59.7-74.8 59.7 -11.6 0-17.3-5.2-17.3-15.9 0-8.7 4.3-19.7 12.9-32.7 28.3-5.7 48.8-11.9 61-18.4 12.4-6.7 18.8-15 18.8-24.6 0-4.2-1.9-8.3-5.3-10.9 -3.5-3-8-4.5-12.5-4.5 -10.9 0-25.1 4.7-42.3 14.1 -23.2 12.7-38.3 26.9-45.1 42.5 -23.8 33.6-41.2 50.6-51.6 50.6 -5.7 0-8.3-2.5-8.3-7.9 0-5.1 2.6-12.2 7.9-21l43.1-73.7h25.5l2.5-4.6h-25.4l22.7-38.3 -2 0.6c-3.6 1-7.3 1.5-11.1 1.5 -3.7 0-7.3-0.5-10.9-1.5l-0.6-0.2 -22.9 37.9H560l-3.1 4.6h19.9l-26.6 44.6c-26.8 38.5-45.9 58-56.8 58 -4.9 0-7.1-2.3-7.1-7.1s6.1-16.5 18.1-34.6c12-18.1 18.1-31.5 18.1-40.4 0.2-6.5-2-12.8-6-17.8 -3.6-4.6-9.2-7.3-15.1-7.3 -7.2 0-15.1 4-23.5 11.9 -6.4 6-15 16.2-25.7 30.4 4.3-8.4 6.4-15.4 6.4-21 0.1-5.4-1.6-10.6-4.9-14.9 -2.7-3.9-7.2-6.3-12-6.4 -7.2 0-20.6 13.2-40.8 40.3l-3.6 4.8c-0.5 0.5-0.9 1.2-1 2v0.2 0.1c0 1.1 0.9 1.9 2 1.9h0.2c0.9-0.2 1.9-1.1 3.3-3.1 24-34.4 34.2-41.6 38.5-41.6 1.7 0 4 0.5 4 5 0 6.7-8.7 23.9-25.8 51.1L387.3 608l1.8-0.2c4.2-0.5 8.5-0.8 12.7-0.8 1.3 0 5 0.3 11.4 0.8h0.6l0.3-0.5c39.1-69.7 68.4-105.1 86.9-105.1 5.1 0 7.5 2.3 7.5 7.1 0 4.1-5.3 13.9-15.6 29.3 -10.1 14.7-16.4 24.8-18.8 29.7 -2.5 5.2-3.7 10.9-3.7 16.6 -0.2 6.3 2 12.5 6.2 17.3 3.8 4.6 9.4 7.2 15.4 7.1 9.2 0 21.3-9.2 37.1-28 3.2-3.9 6.1-7.3 8.7-10.4 -1.8 4.6-2.8 9.5-3 14.4 -0.2 6.3 2.1 12.5 6.4 17.1 4 4.5 9.9 7 15.9 6.9 11.8 0 28.3-14.3 50.2-43.6 -0.5 2.7-0.7 5.5-0.7 8.3 -0.3 9.3 3.1 18.4 9.5 25.3 6 6.6 14.6 10.2 23.5 10.1 19.4 0 42.9-16.8 69.9-50.1l8.4-10.5c1.6-2.1 2.5-3.3 3-4.1l0 0c0.2-0.3 0.4-0.6 0.7-1 18.9-27.6 32-41.6 38.9-41.6 1.7 0 3.6 0.5 3.6 4.6 0 6-8 22.1-23.8 47.8l-32.7 53.2 1.7-0.1c2.7-0.2 11.1-0.8 11.8-0.8 1.1 0 5.1 0.3 12 0.8h0.5l0.3-0.5c12.5-21.4 21.4-35.8 26.5-42.7 5.2-7 11.2-13.4 17.7-19.2 -1 3.7-1.5 7.5-1.7 11.3 0 11.9 5.3 18 15.7 18 8.9 0 18.5-5.6 28.5-16.7 5.9-6.5 8.9-10 10.4-12l0 0c0.6-0.6 1.2-1.3 1.7-2.1 24-34.4 34.2-41.6 38.5-41.6 1.7 0 4 0.5 4 5 0 6.7-8.7 23.9-25.8 51.1l-31.3 49.6 1.8-0.2c4.2-0.5 8.5-0.8 12.7-0.8 1.3 0 5 0.3 11.4 0.8h0.6l0.3-0.5c39.1-69.7 68.3-105.1 86.8-105.1 5.1 0 7.5 2.3 7.5 7.1 0 4.1-5.3 14-15.6 29.3 -10.1 14.7-16.4 24.8-18.9 29.7 -2.5 5.2-3.7 10.9-3.7 16.6 -0.2 6.3 2 12.5 6.2 17.3 3.8 4.6 9.4 7.2 15.4 7.1 9.2 0 21.3-9.2 37.2-28 4.6-5.5 8.5-10.2 11.7-14.2 -0.7 3.4-1 6.8-1 10.2 0 9.1 2.4 16.8 7.2 22.8s10.9 9.2 18 9.2c6.7 0 13.6-3.3 20.6-9.8 6-5.6 14.5-15.8 25.2-30.4 -1.9 5-3 10.4-3.1 15.7 -0.2 6.3 1.9 12.5 5.9 17.4 3.7 4.6 9.4 7.2 15.3 7 9.2 0 21.3-9.2 36.9-28 3.7-4.4 6.9-8.2 9.7-11.6 -2.1 4.9-3.3 10.2-3.5 15.6 -0.2 6.3 2.1 12.5 6.4 17.1 4.1 4.5 9.9 7 15.9 6.9 11.4 0 27.1-13.3 47.9-40.5 -3 6.9-4.5 12.5-4.5 16.8 -0.2 6.2 2.1 12.3 6.4 16.8 4.1 4.4 9.9 6.9 15.9 6.8 12.5 0 29.6-14.9 52.2-45.2 -1 3.8-1.5 7.7-1.5 11.6 -0.2 8.7 2.9 17.1 8.5 23.6 5.7 6.6 12.6 9.9 20.6 9.9 15.2 0 31.5-12.2 48.6-36.2 3.3 1.4 6.8 2.2 10.4 2.1 9.8 0 20.6-5.8 32.2-17.3 1.5-1.5 2.9-3 4-4.1 0.7-0.7 1.3-1.4 1.8-2l0 0 0.5-0.6c0.6-0.7 1.2-1.3 1.7-1.9l0.2-0.2c0.8-0.9 1.7-2.1 3-3.6l0 0c0.4-0.6 0.9-1.2 1.5-1.8 1.6-2.3 3.2-4.6 4.7-6.6l0.1-0.1v-0.1l0 0c20.5-28.4 29.6-34.7 33.6-34.7 1.9 0 4 0.6 4 5 0 6.7-8.7 23.9-25.7 51.1l-31.3 49.9 1.8-0.2c4.2-0.5 8.5-0.8 12.7-0.8 1.2 0 5.1 0.3 11.4 0.8h0.6l0.3-0.5c39.1-69.7 68.3-105.1 86.8-105.1 5.1 0 7.5 2.3 7.5 7.1 0 4.1-5.3 13.9-15.6 29.3 -10.1 14.7-16.4 24.8-18.9 29.7 -2.5 5.2-3.7 10.9-3.7 16.6 -0.2 6.3 2 12.5 6.2 17.3 3.8 4.6 9.4 7.2 15.4 7.1 9.2 0 21.3-9.2 37.1-28 4.6-5.5 8.5-10.2 11.7-14.2 -0.7 3.4-1 6.8-1 10.2 0 9.1 2.4 16.8 7.2 22.8s10.9 9.2 18 9.2c6.7 0 13.6-3.3 20.6-9.8 5.9-5.6 14.5-15.8 25.2-30.4 -1.9 5-3 10.4-3.1 15.7 -0.2 6.3 1.9 12.5 5.9 17.4 3.7 4.6 9.4 7.2 15.3 7 9.2 0 21.3-9.2 36.9-28 4.3-5.1 7.9-9.5 11-13.3 -2.4 5.7-3.6 11.8-3.7 18 -0.2 6 1.8 11.9 5.6 16.6 3.5 4.3 8.8 6.8 14.4 6.6 12.1 0 30.1-16.8 55-51.2l8.3-11.4c1.2-0.9 2-2.2 2.2-3.7 0.1-0.9-0.5-1.8-1.4-2h-0.2c-1.4 0.1-2.5 1-3 2.3 -28.8 40.8-48.8 61.4-59.3 61.4 -4.5 0-6.5-2.5-6.5-7.9 0-5 4.5-15.5 13.4-31.2C1682.4 550.1 1714.5 496 1768.8 405.8zM670.6 516.1c11-9.4 20-14.1 26.6-14.1 4.1 0 5.9 1.7 5.9 5.4 0 7.4-6.4 15.6-19.1 24.1 -12.3 8.3-27.4 14.9-44.9 19.6C648.2 538.2 658.8 526.5 670.6 516.1zM1042.6 560.7c-21.8 29.3-37.2 44.2-45.8 44.2 -7 0-10.4-3.9-10.4-11.8 0-14.1 9.7-33 28.9-56.1s34.7-34.7 46.4-34.7c5.4 0 7.9 2.8 7.9 8.7C1069.5 519.9 1060.5 536.6 1042.6 560.7L1042.6 560.7zM1317.9 537.8c-5.2 6.9-7.8 13.7-7.8 20.2 0.2 4.8 2.1 9.4 5.4 12.9 -16.2 22.4-31.2 33.7-44.8 33.7 -8.1 0-12-4.1-12-12.6 0-15.2 8.5-34.2 25.3-56.5 16.8-22.3 31.1-33.5 42.5-33.5 8.9 0 13.4 4.9 13.4 14.9 0 4.4-0.7 8.8-2.3 13 -0.8-1.6-2.5-2.6-4.3-2.6C1328.3 527.3 1323.1 530.9 1317.9 537.8zM1584.2 560.8c-21.8 29.3-37.2 44.2-45.8 44.2 -7 0-10.4-3.9-10.4-11.8 0-14.1 9.7-33 28.9-56.1 19.2-23.1 34.7-34.7 46.3-34.7 5.4 0 7.9 2.8 7.9 8.7C1611.1 519.9 1601.9 536.6 1584.2 560.8z"/><path class="st0" d="M591.3 727.6c-0.3 0-0.5 0.1-0.6 0.6l-3.7 9.7c-0.6 1.3-0.9 2.7-1 4.1 0 1.2 0.6 2.1 2.7 2.1h1c0.8 0 1 0.1 1 0.5s-0.4 0.7-1.1 0.7c-2.2 0-5.1-0.2-7.2-0.2 -0.7 0-4.5 0.2-8 0.2 -0.9 0-1.3-0.1-1.3-0.7s0.3-0.5 0.8-0.5c0.7 0 1.4-0.1 2.1-0.1 3.1-0.4 4.5-2.7 5.8-6.1l17-42.5c0.8-2 1.2-2.7 1.9-2.7 0.7 0 1 0.6 1.7 2.2 1.6 3.7 12.5 31.3 16.8 41.6 2.6 6.1 4.5 7 5.9 7.4 0.9 0.2 1.9 0.3 2.8 0.3 0.5 0 0.9 0 0.9 0.5s-0.6 0.7-3.1 0.7 -7.4 0-12.8-0.1c-1.2 0-2 0-2-0.6s0.3-0.5 1-0.6c0.6-0.2 0.9-0.9 0.6-1.4 0 0 0 0 0-0.1L607 728c-0.1-0.3-0.4-0.5-0.7-0.5L591.3 727.6zM605.1 724.2c0.3 0 0.4-0.2 0.3-0.4l-6.1-16.7c0-0.3-0.1-0.6-0.3-0.6 -0.2 0-0.3 0.3-0.4 0.6l-6.2 16.7c0 0.3 0 0.5 0.3 0.5L605.1 724.2z"/><path class="st0" d="M620.6 702.2c-1.3 0-2.5-0.5-3.4-1.4 -0.9-0.9-1.5-2.1-1.5-3.4 0-1.3 0.6-2.5 1.5-3.4 0.9-0.9 2.1-1.4 3.4-1.4 2.6 0 4.7 2.1 4.8 4.7 0 0 0 0.1 0 0.1C625.4 700.1 623.2 702.2 620.6 702.2L620.6 702.2zM620.6 701.7c1.1 0 2.2-0.4 3-1.3 0.8-0.8 1.2-1.9 1.2-3 0-1.1-0.4-2.2-1.2-3 -1.6-1.6-4.1-1.7-5.8-0.1 0 0-0.1 0.1-0.1 0.1 -0.8 0.8-1.2 1.9-1.2 3 0 1.1 0.4 2.2 1.2 3C618.5 701.3 619.6 701.7 620.6 701.7L620.6 701.7zM619.1 696.8c0-0.4 0-0.7 0-0.9 0-0.2 0-0.4 0-0.5s-0.2-0.4-0.6-0.4c-0.1 0-0.1 0-0.1-0.1s0-0.1 0.1-0.1h1.8c0.3 0 0.7 0 1 0.1 0.3 0.1 0.6 0.3 0.7 0.5 0.1 0.2 0.2 0.4 0.1 0.6 0 0.3-0.1 0.5-0.2 0.7 -0.2 0.3-0.4 0.6-0.7 0.9l0.4 0.5 0.4 0.5 0.3 0.4 0.3 0.4 0.2 0.2 0.2 0.1c0.1 0.1 0.3 0.2 0.4 0.2 0.1 0 0.1 0 0.1 0.1s0 0-0.1 0h-0.2 -0.4 -0.2 -0.2c-0.2-0.1-0.3-0.2-0.4-0.4l-0.3-0.3 -0.3-0.4 -0.4-0.6 -0.3-0.5h-1v0.6c0 0.4 0 0.7 0 1.1 0 0.1 0 0.2 0 0.3 0.1 0 0.1 0.1 0.2 0.1h0.3c0 0 0.1 0 0.1 0.1s0 0.1-0.1 0.1h-1.8c0 0-0.1 0-0.1-0.1s0-0.1 0.1-0.1c0.1 0 0.3 0 0.4-0.1 0 0 0.1-0.1 0.1-0.3 0-0.2 0-0.3 0-0.5s0-0.6 0-1L619.1 696.8zM619.8 697.4c0.1 0 0.2 0.1 0.3 0.1h0.4 0.3c0.1 0 0.2 0 0.2-0.1 0.1-0.1 0.2-0.2 0.3-0.4 0.1-0.2 0.1-0.4 0.1-0.6 0-0.3-0.1-0.7-0.3-1 -0.2-0.3-0.6-0.4-0.9-0.4H620c-0.1 0-0.2 0-0.2 0V697.4z"/></svg>