<svg xmlns="http://www.w3.org/2000/svg" width="32" height="26" viewBox="0 2.8 32 26.2"><path d="M32 6.1C30.8 6.6 29.6 7 28.2 7.1c1.4-0.8 2.4-2.1 2.9-3.6 -1.3 0.8-2.7 1.3-4.2 1.6C25.7 3.8 24 3 22.1 3c-3.6 0-6.6 2.9-6.6 6.6 0 0.5 0.1 1 0.2 1.5C10.3 10.8 5.5 8.2 2.2 4.2c-0.6 1-0.9 2.1-0.9 3.3 0 2.3 1.2 4.3 2.9 5.5 -1.1 0-2.1-0.3-3-0.8 0 0 0 0.1 0 0.1 0 3.2 2.3 5.8 5.3 6.4C6 18.8 5.4 18.9 4.8 18.9c-0.4 0-0.8 0-1.2-0.1 0.8 2.6 3.3 4.5 6.1 4.6 -2.2 1.8-5.1 2.8-8.1 2.8 -0.5 0-1.1 0-1.6-0.1C2.9 27.9 6.4 29 10.1 29c12.1 0 18.7-10 18.7-18.7 0-0.3 0-0.6 0-0.8C30 8.6 31.1 7.4 32 6.1z" fill="#55ACEE"/></svg>