<?xml version="1.0" encoding="utf-8"?>
<!-- Generator: Adobe Illustrator 20.0.0, SVG Export Plug-In . SVG Version: 6.00 Build 0)  -->
<svg version="1.1" id="Layer_1" xmlns="http://www.w3.org/2000/svg" xmlns:xlink="http://www.w3.org/1999/xlink" x="0px" y="0px"
	 viewBox="0 0 48 33.6" style="enable-background:new 0 0 48 33.6;" xml:space="preserve">
<style type="text/css">
	.st0{fill:#FFFFFF;}
</style>
<path class="st0" d="M47.2,5.4c-0.3-1.3-1-2.4-1.9-3.2c-1-0.9-2.1-1.4-3.3-1.5C38,0.3,32,0,24,0S10,0.2,6,0.7
	C4.7,0.9,3.6,1.4,2.7,2.2c-1,0.9-1.6,1.9-1.9,3.2C0.2,7.9,0,11.7,0,16.8c0,5.2,0.3,8.9,0.8,11.4c0.3,1.3,0.9,2.3,1.9,3.2
	s2.1,1.4,3.3,1.5c4,0.5,10,0.7,18,0.7s14.1-0.2,18-0.7c1.3-0.1,2.4-0.6,3.3-1.5c1-0.9,1.6-1.9,1.9-3.2c0.6-2.5,0.8-6.3,0.8-11.4
	C48,11.6,47.7,7.9,47.2,5.4z M19.6,24.1V9.5l12.1,7.3L19.6,24.1z"/>
</svg>
