<?xml version="1.0" encoding="utf-8"?>
<!-- Generator: Adobe Illustrator 20.0.0, SVG Export Plug-In . SVG Version: 6.00 Build 0)  -->
<svg version="1.1" id="Layer_1" xmlns="http://www.w3.org/2000/svg" xmlns:xlink="http://www.w3.org/1999/xlink" x="0px" y="0px"
	 viewBox="0 0 180 120" style="enable-background:new 0 0 180 120;" xml:space="preserve">
<style type="text/css">
	.st0{fill:#9B9B9B;}
</style>
<g>
	<path class="st0" d="M0,0v120h180V0H0z M174,114H6V6h168V114z"/>
	<polygon class="st0" points="58.9,25.3 61.4,24 63.9,25.3 63.4,22.6 65.4,20.6 62.6,20.2 61.4,17.7 60.2,20.2 57.4,20.6 59.4,22.6 
			"/>
	<polygon class="st0" points="63.9,33.4 62.7,30.9 61.4,33.4 58.7,33.8 60.7,35.7 60.2,38.4 62.7,37.1 65.1,38.4 64.7,35.7 
		66.7,33.8 	"/>
	<polygon class="st0" points="48.1,16.5 50.5,15.3 53,16.5 52.5,13.8 54.5,11.9 51.8,11.5 50.5,9 49.3,11.5 46.5,11.9 48.5,13.8 	
		"/>
	<polygon class="st0" points="17.9,48.6 29.1,42.5 40.2,48.6 38.1,35.6 47.1,26.4 34.6,24.6 29.1,12.8 23.5,24.6 11,26.4 20,35.6 	
		"/>
	<polygon class="st0" points="53.8,44.8 52.5,42.3 51.3,44.8 48.5,45.2 50.5,47.1 50.1,49.8 52.5,48.6 55,49.8 54.5,47.1 56.5,45.2 
			"/>
</g>
</svg>
