<?xml version="1.0" encoding="utf-8"?>
<!-- Generator: Adobe Illustrator 20.0.0, SVG Export Plug-In . SVG Version: 6.00 Build 0)  -->
<svg version="1.1" id="Layer_1" xmlns="http://www.w3.org/2000/svg" xmlns:xlink="http://www.w3.org/1999/xlink" x="0px" y="0px"
	 viewBox="0 0 180 120" style="enable-background:new 0 0 180 120;" xml:space="preserve">
<style type="text/css">
	.st0{fill:#9B9B9B;}
</style>
<g>
	<path class="st0" d="M0,0v120h180V0H0z M174,114H6V88h168V114z M174,82H6V39h168V82z M174,33H6V6h168V33z"/>
	<path class="st0" d="M28.5,75c6.6,0,12-5.4,12-12V50v-1v-2h-2h-1H22.1h-3.6h-2v2v0.4V63C16.5,69.6,21.9,75,28.5,75z M20.5,51h16v12
		c0,4.4-3.6,8-8,8s-8-3.6-8-8V51z"/>
</g>
</svg>
