<?xml version="1.0" encoding="utf-8"?>
<!-- Generator: Adobe Illustrator 20.0.0, SVG Export Plug-In . SVG Version: 6.00 Build 0)  -->
<svg version="1.1" id="Layer_1" xmlns="http://www.w3.org/2000/svg" xmlns:xlink="http://www.w3.org/1999/xlink" x="0px" y="0px"
	 viewBox="0 0 180 120" style="enable-background:new 0 0 180 120;" xml:space="preserve">
<style type="text/css">
	.st0{fill:#9B9B9B;}
</style>
<g>
	<path class="st0" d="M0,0v120h180V0H0z M174,114H6V6h168V114z"/>
	<path class="st0" d="M169.8,60L90,11.2L10.2,60L90,108.8L169.8,60z M90,17.7L160.4,60L90,102.3L19.6,60L90,17.7z"/>
	<path class="st0" d="M121,60c0-17.1-13.9-31-31-31S59,42.9,59,60s13.9,31,31,31S121,77.1,121,60z M90,34.6
		c14,0,25.4,11.4,25.4,25.4c0,1.2-0.1,2.4-0.2,3.5c-12.2-9.9-27.3-15.8-43.6-15.8c-1.3,0-2.5,0-3.8,0.1C72,40,80.4,34.6,90,34.6z
		 M64.6,60c0-2.5,0.4-5,1.1-7.2c1.9-0.2,3.8-0.3,5.8-0.3c16,0,30.7,6,42.4,16C110.4,78.3,101,85.4,90,85.4C76,85.4,64.6,74,64.6,60z
		"/>
</g>
</svg>
